<?xml version="1.0" encoding="utf-8"?>
<!-- Generator: Adobe Illustrator 20.1.0, SVG Export Plug-In . SVG Version: 6.00 Build 0)  -->
<svg version="1.1" id="Layer_1" xmlns="http://www.w3.org/2000/svg" xmlns:xlink="http://www.w3.org/1999/xlink" x="0px" y="0px"
	 width="100%" height="100%" viewBox="0 0 200 200" style="enable-background:new 0 0 200 200;" xml:space="preserve">
<style type="text/css">
	.st0{fill:#FFFFFF;}
	.st1{fill:#6DBD4B;}
	.st2{fill:#FAEB06;}
	.st3{fill:#EE3942;}
	.st4{fill:#F9AF19;}
	.st5{fill:#06A4DE;}
	.st6{fill:#EA2127;}
	.st7{fill:#2D368E;}
	.st8{fill:#F26F52;}
	.st9{fill:#F8A98D;}
	.st10{fill:#C22127;}
	.st11{fill:#FFFFFF;stroke:#FFFFFF;stroke-width:0.1099;stroke-miterlimit:22.9256;}
	.st12{fill:#D62027;}
</style>
<path class="st0" d="M196.5,100c0-53.1-43.2-96.4-96.4-96.4C46.9,3.6,3.6,46.9,3.6,100s43.2,96.4,96.4,96.4
	C153.2,196.4,196.5,153.1,196.5,100z"/>
<g>
	<g>
		<path class="st1" d="M25.4,75.5c3.8-11.6,10.2-22.1,19.1-31c14.7-14.7,34.9-22.9,55.7-23V0C56.1,0.1,18.1,29,5,68.8L25.4,75.5z"/>
		<path class="st2" d="M100.3,21.5c20.9,0.1,40.5,8.2,55.2,23c8.8,8.8,15.5,19.9,19.2,31.5l20.5-6.6C182.2,29.5,144.5,0.1,100.3,0
			V21.5z"/>
		<path class="st3" d="M146,163.6c-13.3,9.6-29.2,14.8-45.9,14.8s-33.1-5.5-46.3-15.1L41,180.7c16.5,11.9,37.1,19.3,59,19.3
			c21.8,0,42.1-7,58.5-19L146,163.6z"/>
		<path class="st4" d="M195.3,69.3L174.8,76c2.4,7.7,3.7,15.7,3.7,24c0,21-8.2,40.7-23,55.5c-2.9,2.9-6.3,5.8-9.6,8.2l12.6,17.4
			c24.9-18.2,41.5-47.9,41.5-81C200.1,89.3,198.4,79,195.3,69.3z"/>
		<path class="st5" d="M53.7,163.3c-3.2-2.4-6.3-5-9.1-7.9c-14.8-14.8-23-34.5-23-55.5c0-8.3,1.4-16.8,3.9-24.5L5,68.8
			C1.9,78.5,0,89.3,0,100c0,33.1,16.2,62.5,41,80.7L53.7,163.3z"/>
	</g>
	<g>
		<path class="st1" d="M38.3,79.7c3.1-9.6,8.5-18.3,15.8-25.7C66.3,41.8,83,35,100.2,35V17.2c-36.6,0.1-68,24-78.9,57L38.3,79.7z"/>
		<path class="st2" d="M100.2,35c17.3,0.1,33.5,6.8,45.7,19c7.3,7.3,12.8,16.5,15.9,26.1l16.9-5.5c-10.8-33-42-57.3-78.6-57.4V35
			H100.2z"/>
		<path class="st3" d="M138.1,152.7c-11,8-24.2,12.3-38,12.3s-27.4-4.5-38.4-12.5l-10.4,14.4c13.6,9.9,30.7,16,48.8,16
			s34.8-5.8,48.5-15.7L138.1,152.7z"/>
		<path class="st4" d="M178.9,74.6L162,80.1c2,6.3,3.1,13,3.1,19.9c0,17.4-6.8,33.7-19,45.9c-2.4,2.4-5.3,4.8-7.9,6.8l10.4,14.4
			c20.6-15.1,34.3-39.7,34.3-67.1C182.9,91.1,181.5,82.6,178.9,74.6z"/>
		<path class="st5" d="M61.6,152.4c-2.7-2-5.2-4.1-7.6-6.5c-12.3-12.3-19-28.6-19-45.9c0-6.9,1.2-13.9,3.2-20.3l-16.9-5.5
			c-2.6,8-4.1,16.9-4.1,25.8c0,27.4,13.4,51.7,34,66.8L61.6,152.4z"/>
	</g>
</g>
<g>
	<path class="st6" d="M99.2,60.1l17.8,0.1c9.6,0,10.2,0.3,13.5,0.9c6.3,1.2,9.1,6.3,9.1,14.1c0,7.9-1.2,13.3-10.1,15
		c4.2,0.9,9.3,1.4,10,10.1c-5.6,0.1-11.3,0.5-16.9,1.3c-0.1-2-0.3-3.5-0.7-4.1c-0.7-1.1-2-1.4-4.8-1.4v6.3
		c-13.1,2.1-26.3,5.6-39.5,10.4v-2.5h-22V99.6l15.9-39.5h23.6v40.3h4.3V60.1H99.2z M140.2,108.4c-5.4-0.1-11.3,0.6-17.5,1.6v16.7h18
		c-1.1-5.8-0.6-11.5-0.5-17.3C140.2,109,140.2,108.7,140.2,108.4L140.2,108.4z M117.1,110.7c-5.6,1.1-11.6,2.9-17.8,4.9v11.1h17.9
		L117.1,110.7L117.1,110.7z M95,116.8v9.8H77.6v-3.5C83.6,120.7,89.4,118.7,95,116.8L95,116.8z M117.1,69v17.4
		c2.3,0,3.9-0.3,4.8-0.8c0.9-0.5,1.1-2.3,1-5.2v-6.2c0-2.1-0.1-3.5-1-4.2C121.1,69.3,119.5,69,117.1,69L117.1,69z M78.7,100.3V69.2
		l-9.5,31.1H78.7z"/>
	<path class="st7" d="M86,132.1h-3.2v-1c0-0.5,0-0.7-0.1-0.9c-0.1-0.1-0.2-0.2-0.4-0.2c-0.2,0-0.4,0.1-0.5,0.3
		c-0.1,0.2-0.2,0.4-0.2,0.8c0,0.4,0.1,0.8,0.2,1c0.1,0.2,0.4,0.5,1,0.8c1.5,0.9,2.5,1.6,2.9,2.2c0.4,0.6,0.6,1.5,0.6,2.8
		c0,0.9-0.1,1.6-0.3,2.1c-0.2,0.4-0.6,0.8-1.3,1.1c-0.6,0.3-1.4,0.5-2.2,0.5c-0.9,0-1.7-0.2-2.3-0.5c-0.6-0.3-1.1-0.8-1.3-1.3
		s-0.3-1.3-0.3-2.3v-0.9h3.2v1.6c0,0.5,0,0.8,0.1,0.9c0.1,0.1,0.2,0.2,0.5,0.2c0.2,0,0.4-0.1,0.5-0.3s0.2-0.4,0.2-0.8
		c0-0.8-0.1-1.3-0.3-1.5s-0.7-0.6-1.6-1.2c-0.8-0.6-1.4-1-1.7-1.2c-0.3-0.3-0.5-0.6-0.7-1.1c-0.2-0.4-0.3-1-0.3-1.7
		c0-1,0.1-1.7,0.4-2.2c0.3-0.5,0.7-0.8,1.2-1.1c0.6-0.3,1.3-0.4,2.1-0.4c0.9,0,1.6,0.1,2.3,0.4c0.6,0.3,1,0.6,1.2,1.1
		c0.2,0.4,0.3,1.2,0.3,2.2L86,132.1L86,132.1z M90.7,128.1v1.7h-3.4v-1.7H90.7L90.7,128.1z M90.7,130.5v10.8h-3.4v-10.8H90.7
		L90.7,130.5z M98.5,133.9h-2.9v-0.6c0-0.5,0-0.8-0.1-0.9c-0.1-0.1-0.2-0.2-0.4-0.2c-0.2,0-0.3,0.1-0.4,0.2
		c-0.1,0.1-0.1,0.3-0.1,0.5c0,0.3,0,0.6,0.1,0.7c0,0.2,0.2,0.3,0.4,0.5s0.7,0.5,1.4,0.8c1,0.5,1.6,0.9,1.9,1.3
		c0.3,0.4,0.4,1,0.4,1.8c0,0.9-0.1,1.5-0.3,2c-0.2,0.4-0.6,0.8-1.1,1s-1.2,0.4-1.9,0.4c-0.8,0-1.5-0.1-2.1-0.4
		c-0.6-0.3-1-0.6-1.2-1.1c-0.2-0.4-0.3-1.1-0.3-2v-0.5h2.9v0.7c0,0.6,0,1,0.1,1.1c0.1,0.2,0.2,0.3,0.4,0.3c0.2,0,0.4-0.1,0.5-0.2
		c0.1-0.1,0.1-0.4,0.1-0.7c0-0.5-0.1-0.8-0.2-1c-0.1-0.1-0.8-0.5-1.9-1.2c-1-0.5-1.5-1-1.8-1.5c-0.2-0.4-0.3-1-0.3-1.6
		c0-0.9,0.1-1.5,0.3-1.9c0.2-0.4,0.6-0.7,1.2-0.9c0.5-0.2,1.2-0.3,1.9-0.3c0.7,0,1.3,0.1,1.8,0.3c0.5,0.2,0.9,0.4,1.2,0.7
		c0.3,0.3,0.4,0.6,0.5,0.8c0.1,0.3,0.1,0.7,0.1,1.2v0.7H98.5z M103.1,129v1.7h0.9v1.7h-0.9v5.8c0,0.7,0,1.1,0.1,1.2
		c0.1,0.1,0.4,0.1,0.9,0.1v1.7h-1.3c-0.7,0-1.3,0-1.6-0.1c-0.3-0.1-0.6-0.2-0.8-0.4c-0.2-0.2-0.4-0.5-0.5-0.8s-0.1-1-0.1-2v-5.5
		h-0.7v-1.7h0.7V129H103.1L103.1,129z M112.2,136H108v2.3c0,0.5,0,0.8,0.1,0.9c0.1,0.1,0.2,0.2,0.4,0.2s0.4-0.1,0.5-0.3
		c0.1-0.2,0.1-0.5,0.1-1.1v-1.4h3.1v0.8c0,0.7,0,1.2-0.1,1.5c-0.1,0.4-0.3,0.7-0.6,1.1c-0.3,0.4-0.7,0.7-1.2,0.9
		c-0.5,0.2-1.1,0.3-1.8,0.3c-0.7,0-1.3-0.1-1.8-0.3s-0.9-0.5-1.2-0.8c-0.3-0.3-0.5-0.7-0.6-1.2c-0.1-0.4-0.2-1-0.2-1.8V134
		c0-0.9,0.1-1.7,0.4-2.2c0.3-0.5,0.7-1,1.3-1.2c0.6-0.3,1.2-0.4,2-0.4c0.9,0,1.7,0.2,2.3,0.5s1,0.8,1.3,1.4c0.2,0.6,0.4,1.4,0.4,2.4
		v1.5H112.2z M109,134.3v-0.8c0-0.6,0-0.9-0.1-1.1c-0.1-0.2-0.2-0.2-0.4-0.2c-0.2,0-0.4,0.1-0.4,0.2c-0.1,0.1-0.1,0.5-0.1,1.1v0.8
		H109L109,134.3z M116.6,130.5l-0.1,1c0.3-0.4,0.6-0.7,0.9-0.9c0.3-0.2,0.7-0.3,1.2-0.3c0.9,0,1.6,0.4,2.1,1.2
		c0.3-0.4,0.6-0.7,0.9-0.9s0.7-0.3,1.2-0.3c0.6,0,1,0.1,1.4,0.4c0.4,0.3,0.6,0.6,0.7,1c0.1,0.4,0.2,1,0.2,1.9v7.6h-3.2v-7
		c0-0.9,0-1.5-0.1-1.7s-0.2-0.3-0.4-0.3s-0.4,0.1-0.5,0.3c-0.1,0.2-0.1,0.8-0.1,1.7v7h-3.2v-6.8c0-1.1,0-1.7-0.1-1.9
		c0-0.2-0.2-0.3-0.4-0.3c-0.1,0-0.3,0.1-0.4,0.2c-0.1,0.1-0.2,0.2-0.2,0.4s0,0.5,0,1v7.5h-3.2v-10.8L116.6,130.5L116.6,130.5z
		 M129,134.6h-3.1v-0.7c0-0.8,0.1-1.5,0.3-1.9c0.2-0.5,0.6-0.9,1.2-1.2c0.6-0.3,1.3-0.5,2.3-0.5c1.1,0,1.9,0.2,2.5,0.6
		c0.6,0.4,0.9,0.9,1,1.4c0.1,0.6,0.2,1.7,0.2,3.5v5.4h-3.2v-1c-0.2,0.4-0.5,0.7-0.8,0.9c-0.3,0.2-0.7,0.3-1.1,0.3
		c-0.6,0-1.1-0.2-1.6-0.5c-0.5-0.3-0.7-1-0.7-2.1v-0.9c0-0.8,0.1-1.4,0.4-1.6c0.3-0.3,0.9-0.6,1.9-1c1.1-0.4,1.6-0.7,1.7-0.9
		c0.1-0.1,0.1-0.4,0.1-0.9c0-0.6,0-0.9-0.1-1.1c-0.1-0.2-0.2-0.3-0.4-0.3c-0.2,0-0.4,0.1-0.4,0.2c-0.1,0.1-0.1,0.5-0.1,1.1v1.2H129z
		 M130.1,136.1c-0.5,0.4-0.8,0.7-0.9,1c-0.1,0.3-0.1,0.6-0.1,1.1c0,0.6,0,0.9,0.1,1.1c0.1,0.2,0.2,0.2,0.4,0.2
		c0.2,0,0.3-0.1,0.4-0.2c0.1-0.1,0.1-0.5,0.1-1V136.1L130.1,136.1z M141.2,133.9h-2.9v-0.6c0-0.5,0-0.8-0.1-0.9
		c-0.1-0.1-0.2-0.2-0.4-0.2s-0.3,0.1-0.4,0.2c-0.1,0.1-0.1,0.3-0.1,0.5c0,0.3,0,0.6,0.1,0.7c0,0.2,0.2,0.3,0.4,0.5s0.7,0.5,1.4,0.8
		c1,0.5,1.6,0.9,1.9,1.3c0.3,0.4,0.4,1,0.4,1.8c0,0.9-0.1,1.5-0.3,2c-0.2,0.4-0.6,0.8-1.1,1c-0.5,0.2-1.2,0.4-1.9,0.4
		c-0.8,0-1.5-0.1-2.1-0.4c-0.6-0.3-1-0.6-1.2-1.1c-0.2-0.4-0.3-1.1-0.3-2v-0.5h2.9v0.7c0,0.6,0,1,0.1,1.1c0.1,0.2,0.2,0.3,0.4,0.3
		c0.2,0,0.4-0.1,0.5-0.2c0.1-0.1,0.1-0.4,0.1-0.7c0-0.5-0.1-0.8-0.2-1c-0.1-0.1-0.8-0.5-1.9-1.2c-1-0.5-1.5-1-1.8-1.5
		c-0.2-0.4-0.3-1-0.3-1.6c0-0.9,0.1-1.5,0.3-1.9c0.2-0.4,0.6-0.7,1.2-0.9c0.5-0.2,1.2-0.3,1.9-0.3s1.3,0.1,1.8,0.3
		c0.5,0.2,0.9,0.4,1.2,0.7c0.3,0.3,0.4,0.6,0.5,0.8c0.1,0.3,0.1,0.7,0.1,1.2v0.7H141.2z"/>
	<path class="st7" d="M65.9,148.2c-16.5,0.6-22.6-1.9-23.1-7.9c-0.7-8,14.1-20.5,54.5-31.4c38.3-10.3,66-10.6,64,6.7
		c-0.7-17.1-43.4-9.6-76.7,1.9c-14.5,5-26.1,12-30.1,18C51.6,139.9,50,147.4,65.9,148.2z"/>
	<path class="st0" d="M125.9,61.4c5.5-0.5,12.4,2.4,12.7,9.7C138.2,66.2,131.6,61.2,125.9,61.4z"/>
	<path class="st0" d="M59.3,147.6c-5.8,0.4-11.1-4.2-6.1-10C50,141.4,53.5,147.4,59.3,147.6z"/>
	<path class="st0" d="M129.3,91.2c3.9-0.3,8.9,1.9,9.1,7.1C138.2,94.9,133.4,91.1,129.3,91.2z"/>
	<path class="st0" d="M146,103.1c6,0,13.8,2.7,14.8,8.2C160,107.6,152.3,103.3,146,103.1z"/>
	<path class="st8" d="M140.2,108.4"/>
	<path class="st9" d="M140.2,108.4"/>
	<path class="st0" d="M140.2,108.4"/>
	<path class="st8" d="M117.1,110.7"/>
	<path class="st9" d="M117.1,110.7"/>
	<path class="st0" d="M117.1,110.7"/>
	<path class="st8" d="M95,60.2"/>
	<path class="st9" d="M95,60.2"/>
	<path class="st0" d="M95,60.2"/>
	<path class="st8" d="M95,116.9"/>
	<path class="st9" d="M95,116.9"/>
	<path class="st0" d="M95,116.9"/>
	<polygon class="st10" points="122.7,109.9 122.7,126.6 140.7,126.6 139.3,125.4 123.9,125.4 123.9,110.6 	"/>
	<g>
		<path class="st10" d="M99.2,115.6v11h17.9l-1.4-1.2h-15.4v-9.5L99.2,115.6L99.2,115.6z M100.4,101.2V60.9l-1.2-0.7v40.3
			L100.4,101.2L100.4,101.2z M100.4,115.9l-1.2-0.3L100.4,115.9z"/>
	</g>
	<g>
		<path class="st10" d="M77.6,123.3v3.4H95l-1.4-1.2H78.8v-1.4L77.6,123.3L77.6,123.3z M78.8,101.1V69l-1.2,3.7v27.6L78.8,101.1z"/>
	</g>
	<polygon class="st10" points="55.5,99.7 55.5,110.3 77.6,110.3 76.2,109.1 56.7,109.1 56.7,100.4 72.6,61.1 71.4,60.1 	"/>
	<path class="st10" d="M122.7,101.6l1.2-1.3c-0.3-3.9-2.1-5.8-5.9-5.1l-0.9,0.8c3.1-0.4,4.8,0.6,5.1,2
		C122.7,99.8,122.7,101.6,122.7,101.6z"/>
	<path class="st8" d="M68.9,100.6l0.8-0.2c0,0.1,0,0.2,0,0.4c-0.1,0.4-0.5,0.7-1,0.6c-0.4-0.1-0.7-0.5-0.6-1c0.1-0.4,0.5-0.7,1-0.6
		L68.9,100.6z"/>
	<path class="st9" d="M68.9,100.5l0.6-0.1c0,0.1,0,0.2,0,0.3c-0.1,0.3-0.4,0.5-0.7,0.4c-0.3-0.1-0.5-0.4-0.4-0.7
		c0.1-0.3,0.4-0.5,0.7-0.4L68.9,100.5z"/>
	<path class="st11" d="M69.1,100.4l0.4-0.1c0,0.1,0,0.1,0,0.2c0,0.2-0.2,0.3-0.4,0.3s-0.3-0.2-0.3-0.4c0-0.2,0.2-0.3,0.4-0.3
		L69.1,100.4z"/>
	<path class="st8" d="M94.6,100.7l0.8-0.2c0,0.1,0,0.2,0,0.4c-0.1,0.4-0.5,0.7-1,0.6c-0.4-0.1-0.7-0.5-0.6-1c0.1-0.4,0.5-0.7,1-0.6
		L94.6,100.7z"/>
	<path class="st9" d="M94.7,100.6l0.6-0.1c0,0.1,0,0.2,0,0.3c-0.1,0.3-0.4,0.5-0.7,0.4c-0.3-0.1-0.5-0.4-0.4-0.7
		c0.1-0.3,0.4-0.5,0.7-0.4L94.7,100.6z"/>
	<path class="st11" d="M94.8,100.5l0.4-0.1c0,0.1,0,0.1,0,0.2c0,0.2-0.2,0.3-0.4,0.3s-0.3-0.2-0.3-0.4c0-0.2,0.2-0.3,0.4-0.3
		L94.8,100.5z"/>
	<path class="st12" d="M117.1,86.6c5-0.1,5.8-1.3,5.9-3.9c0.1-3.1,0-6.1,0-9.2c0-2.7-0.6-4.7-5.9-4.5l-1.5-1.4
		c3.5-0.1,8.2,0.2,8.2,4.3V84c0,3.1-3.3,3.7-8.1,3.8L117.1,86.6z"/>
	<path class="st8" d="M116.8,86.8l0.8-0.2c0,0.1,0,0.2,0,0.4c-0.1,0.4-0.5,0.7-1,0.6c-0.4-0.1-0.7-0.5-0.6-1c0.1-0.4,0.5-0.7,1-0.6
		L116.8,86.8z"/>
	<path class="st9" d="M116.9,86.7l0.6-0.1c0,0.1,0,0.2,0,0.3c-0.1,0.3-0.4,0.5-0.7,0.4c-0.3-0.1-0.5-0.4-0.4-0.7
		c0.1-0.3,0.4-0.5,0.7-0.4L116.9,86.7z"/>
	<path class="st11" d="M117,86.6l0.4-0.1c0,0.1,0,0.1,0,0.2c0,0.2-0.2,0.3-0.4,0.3c-0.2,0-0.3-0.2-0.3-0.4c0-0.2,0.2-0.3,0.4-0.3
		L117,86.6z"/>
</g>
</svg>
